<?xml version="1.0" standalone="no"?>
<!DOCTYPE svg PUBLIC "-//W3C//DTD SVG 20010904//EN"
 "http://www.w3.org/TR/2001/REC-SVG-20010904/DTD/svg10.dtd">
<svg version="1.0" xmlns="http://www.w3.org/2000/svg"
 width="479.000000pt" height="479.000000pt" viewBox="0 0 479.000000 479.000000"
 preserveAspectRatio="xMidYMid meet">
<metadata>
Created by potrace 1.14, written by Peter Selinger 2001-2017
</metadata>
<g transform="translate(0.000000,479.000000) scale(0.100000,-0.100000)"
fill="#000000" stroke="none">
<path d="M2100 4103 c-210 -32 -327 -137 -381 -340 -20 -73 -22 -117 -30 -708
-11 -803 2 -1868 25 -1968 49 -217 163 -317 399 -350 l37 -6 0 118 0 118 -43
17 c-24 9 -55 29 -70 44 -52 54 -59 94 -68 392 -10 349 -10 1648 0 2011 7 274
8 277 35 333 24 50 34 59 87 83 l59 28 0 118 c0 88 -3 117 -12 116 -7 -1 -24
-3 -38 -6z"/>
<path d="M2335 4102 c-3 -3 -5 -56 -5 -117 l0 -113 53 -26 c59 -29 91 -70 106
-136 6 -26 11 -197 11 -412 l0 -368 134 0 134 0 6 31 c10 52 7 622 -4 706 -35
258 -142 386 -360 427 -38 8 -72 11 -75 8z"/>
<path d="M490 2425 l0 -1665 140 0 140 0 0 1665 0 1665 -140 0 -140 0 0 -1665z"/>
<path d="M927 4083 c-4 -3 -7 -60 -7 -125 l0 -118 255 0 255 0 0 125 0 125
-248 0 c-137 0 -252 -3 -255 -7z"/>
<path d="M3170 2425 l0 -1665 135 0 135 0 0 1665 0 1665 -135 0 -135 0 0
-1665z"/>
<path d="M3630 3968 l0 -125 68 -7 c97 -9 139 -23 182 -62 57 -52 70 -100 82
-314 14 -247 3 -914 -16 -992 -30 -125 -104 -179 -258 -186 l-88 -4 0 -124 0
-124 58 0 57 0 149 -628 c82 -345 152 -631 156 -635 4 -4 69 -6 146 -5 l139 3
-166 655 c-144 567 -165 656 -151 665 87 58 113 80 149 134 89 130 104 247
104 836 0 655 -23 791 -154 912 -84 77 -172 107 -354 119 l-103 7 0 -125z"/>
<path d="M927 2553 c-4 -3 -7 -60 -7 -125 l0 -118 235 0 235 0 0 125 0 125
-228 0 c-126 0 -232 -3 -235 -7z"/>
<path d="M2515 1553 l0 -408 -30 -60 c-25 -49 -38 -64 -75 -82 -25 -12 -53
-24 -63 -27 -16 -5 -17 -18 -15 -123 l3 -118 30 3 c115 11 235 63 296 129 50
54 94 147 115 239 19 86 30 476 19 697 l-7 157 -137 0 -136 0 0 -407z"/>
</g>
</svg>
